<?xml version="1.0" standalone="no"?>
<!DOCTYPE svg PUBLIC "-//W3C//DTD SVG 20010904//EN"
 "http://www.w3.org/TR/2001/REC-SVG-20010904/DTD/svg10.dtd">
<svg version="1.0" xmlns="http://www.w3.org/2000/svg"
 width="280.000000pt" height="280.000000pt" viewBox="0 0 280.000000 280.000000"
 preserveAspectRatio="xMidYMid meet">

<g transform="translate(0.000000,280.000000) scale(0.100000,-0.100000)"
fill="#000000" stroke="none">
<path d="M0 1400 l0 -1400 1400 0 1400 0 0 1400 0 1400 -1400 0 -1400 0 0
-1400z m1265 676 c-95 -44 -113 -72 -176 -264 l-48 -147 0 218 -1 217 138 -1
137 0 -50 -23z m493 -340 c1 -198 0 -357 -2 -355 -3 3 -44 128 -92 279 -47
151 -94 291 -104 310 -24 47 -66 85 -120 109 l-45 20 180 -2 180 -2 3 -359z
m-243 64 l98 -5 -77 -54 c-42 -30 -76 -59 -76 -65 0 -6 11 -47 25 -91 14 -44
25 -83 25 -88 0 -4 -34 18 -74 48 -41 30 -79 55 -84 55 -5 0 -42 -25 -82 -55
-40 -30 -75 -53 -77 -52 -1 2 11 43 27 92 17 49 30 90 30 92 0 1 -35 29 -77
60 l-77 58 97 3 96 3 26 82 c15 45 29 89 32 97 3 8 20 -28 37 -80 l33 -95 98
-5z m-393 -383 c19 -15 49 -33 68 -41 34 -15 34 -15 -57 -16 l-93 0 0 93 0 92
24 -51 c13 -28 39 -63 58 -77z m416 3 l21 -60 -117 0 -117 0 40 19 c22 10 63
37 90 59 28 23 53 41 57 42 3 0 15 -27 26 -60z m-368 -142 c31 -16 52 -36 68
-65 l23 -43 -50 0 c-40 0 -55 5 -75 25 -47 46 -114 26 -136 -41 -16 -47 -7
-101 21 -130 39 -41 129 -26 129 22 0 9 -11 14 -35 14 -33 0 -35 2 -35 35 l0
35 90 0 90 0 0 -42 c0 -50 -32 -111 -73 -142 -41 -30 -141 -34 -194 -7 -100
50 -130 170 -70 275 45 80 157 109 247 64z m876 -3 c72 -36 99 -81 99 -164 0
-52 -5 -74 -23 -104 -34 -54 -96 -87 -163 -87 -113 1 -188 68 -197 175 -13
154 141 252 284 180z m-1610 -160 c35 -93 63 -173 64 -177 0 -5 -22 -8 -49 -8
-47 0 -50 2 -56 30 -7 30 -7 30 -75 30 -68 0 -68 0 -75 -30 -6 -28 -9 -30 -56
-30 -27 0 -49 4 -49 9 0 6 27 81 60 168 33 87 62 164 65 171 3 9 21 12 56 10
l52 -3 63 -170z m259 66 l80 -103 3 106 3 106 44 0 44 0 3 -180 3 -180 -47 0
-46 0 -79 104 c-43 58 -81 105 -85 105 -5 1 -8 -46 -8 -104 l0 -105 -45 0 -45
0 0 181 0 180 47 -3 c47 -3 48 -3 128 -107z m845 69 l0 -40 -80 0 -80 0 0 -30
0 -30 80 0 80 0 0 -40 0 -40 -80 0 -80 0 0 -30 0 -30 80 0 80 0 0 -40 0 -40
-125 0 -125 0 0 180 0 180 125 0 125 0 0 -40z m120 -100 l0 -140 55 0 55 0 0
-40 0 -40 -100 0 -100 0 0 180 0 180 45 0 45 0 0 -140z m687 34 l78 -106 3
106 3 106 49 0 50 0 0 -180 0 -180 -48 0 -47 0 -83 106 -82 107 0 -107 0 -106
-50 0 -50 0 0 180 0 180 49 0 49 0 79 -106z m313 -74 l0 -180 -45 0 -45 0 0
180 0 180 45 0 45 0 0 -180z"/>
<path d="M1914 1201 c-60 -26 -73 -113 -25 -162 62 -61 161 -19 161 70 0 71
-72 119 -136 92z"/>
<path d="M298 1110 l-16 -50 34 0 c19 0 34 5 34 11 0 20 -23 89 -30 89 -3 0
-13 -22 -22 -50z"/>
</g>
</svg>
