<?xml version="1.0" standalone="no"?>
<!DOCTYPE svg PUBLIC "-//W3C//DTD SVG 20010904//EN"
 "http://www.w3.org/TR/2001/REC-SVG-20010904/DTD/svg10.dtd">
<svg version="1.0" xmlns="http://www.w3.org/2000/svg"
 width="256.000000pt" height="192.000000pt" viewBox="0 0 256.000000 192.000000"
 preserveAspectRatio="xMidYMid meet">

<g transform="translate(0.000000,192.000000) scale(0.100000,-0.100000)"
fill="#000000" stroke="none">
<path d="M987 1473 c-4 -3 -7 -83 -7 -176 0 -94 2 -168 5 -166 2 3 20 56 39
119 42 135 69 180 128 208 l43 21 -101 1 c-55 0 -104 -3 -107 -7z"/>
<path d="M1346 1448 c64 -43 80 -79 156 -335 35 -117 65 -213 68 -213 3 0 4
130 2 290 l-3 290 -135 0 -136 0 48 -32z"/>
<path d="M1237 1370 c-4 -8 -15 -42 -25 -75 l-18 -60 -79 -5 -79 -5 60 -44
c32 -24 60 -45 61 -46 1 0 -9 -36 -22 -79 l-24 -78 32 24 c18 14 47 35 65 48
l32 24 33 -24 c17 -13 47 -35 65 -48 17 -13 32 -22 32 -20 0 3 -11 37 -25 78
-28 82 -34 70 57 132 26 18 48 35 48 38 0 3 -32 3 -71 2 -42 -2 -76 1 -82 7
-6 6 -20 41 -32 78 -14 42 -25 62 -28 53z"/>
<path d="M980 936 l0 -66 68 0 67 0 -35 21 c-38 23 -79 67 -80 86 0 6 -4 15
-10 18 -6 4 -10 -18 -10 -59z"/>
<path d="M1328 930 c-21 -17 -50 -37 -65 -45 -27 -14 -23 -15 59 -15 l87 0
-16 45 c-8 25 -18 45 -22 45 -3 0 -23 -14 -43 -30z"/>
<path d="M344 795 c-2 -5 -21 -58 -44 -118 -22 -59 -40 -121 -40 -137 0 -26 3
-30 29 -30 22 0 30 6 35 25 6 23 11 25 61 25 49 0 57 -3 67 -25 9 -20 18 -25
49 -25 l37 0 -27 73 c-16 39 -40 104 -55 143 -27 71 -27 72 -68 76 -22 2 -42
-1 -44 -7z m55 -107 c25 -68 25 -68 -13 -68 l-35 0 16 45 c8 25 17 45 19 45 3
0 8 -10 13 -22z"/>
<path d="M560 658 l0 -148 35 0 34 0 3 90 3 90 68 -90 c63 -82 72 -90 103 -90
l34 0 0 148 0 147 -32 -1 -33 -1 0 -87 c0 -47 -3 -86 -7 -86 -4 0 -36 38 -70
84 -57 76 -67 84 -100 88 l-38 4 0 -148z"/>
<path d="M933 790 c-43 -26 -67 -74 -67 -137 -1 -111 112 -184 214 -138 47 21
68 50 79 110 l8 45 -73 0 c-72 0 -74 -1 -74 -25 0 -20 5 -25 24 -25 33 0 42
-17 20 -41 -19 -21 -55 -25 -83 -9 -43 23 -52 120 -15 161 23 25 76 25 99 -1
12 -13 31 -20 57 -20 l39 0 -16 29 c-8 16 -27 39 -41 50 -36 28 -126 29 -171
1z"/>
<path d="M1190 658 l0 -148 100 0 100 0 0 30 0 30 -66 0 -65 0 3 28 c3 26 6
27 66 30 61 3 62 3 62 32 l0 30 -66 0 c-65 0 -65 0 -62 27 3 26 4 27 66 24
l62 -2 0 30 0 30 -100 3 -100 3 0 -147z"/>
<path d="M1453 802 l-33 -3 0 -145 0 -144 85 0 85 0 0 29 c0 28 -2 30 -46 33
l-47 3 2 112 c1 61 -2 113 -6 115 -4 2 -23 2 -40 0z"/>
<path d="M1652 790 c-91 -56 -97 -182 -12 -253 91 -77 238 -22 255 96 9 62
-24 132 -75 159 -47 24 -126 24 -168 -2z m143 -75 c64 -63 -10 -173 -91 -136
-22 10 -54 63 -54 90 0 5 12 23 26 40 33 40 83 43 119 6z"/>
<path d="M1953 802 l-33 -3 0 -145 0 -144 35 0 34 0 3 93 3 92 70 -92 c66 -87
72 -92 108 -93 l37 0 0 144 0 144 -35 4 -35 4 0 -88 c0 -48 -4 -88 -8 -88 -4
0 -36 38 -71 85 -34 47 -66 86 -69 88 -4 1 -22 1 -39 -1z"/>
<path d="M2250 655 l0 -145 25 0 25 0 0 145 0 145 -25 0 -25 0 0 -145z"/>
</g>
</svg>
