<?xml version="1.0" standalone="no"?>
<!DOCTYPE svg PUBLIC "-//W3C//DTD SVG 20010904//EN"
 "http://www.w3.org/TR/2001/REC-SVG-20010904/DTD/svg10.dtd">
<svg version="1.0" xmlns="http://www.w3.org/2000/svg"
 width="380.000000pt" height="328.000000pt" viewBox="0 0 380.000000 328.000000"
 preserveAspectRatio="xMidYMid meet">

<g transform="translate(0.000000,328.000000) scale(0.100000,-0.100000)"
fill="#000000" stroke="none">
<path d="M0 3120 c0 -153 1 -160 20 -160 19 0 20 7 20 160 0 153 -1 160 -20
160 -19 0 -20 -7 -20 -160z"/>
<path d="M1997 2573 c-19 -27 -39 -57 -45 -69 -10 -18 -8 -20 16 -20 20 0 28
5 28 18 0 18 -1 18 -13 2 -7 -10 -15 -15 -19 -12 -6 6 20 52 43 76 16 16 36
52 29 52 -2 0 -20 -21 -39 -47z"/>
<path d="M2046 2594 c-5 -14 -4 -15 9 -4 17 14 19 20 6 20 -5 0 -12 -7 -15
-16z"/>
<path d="M735 2449 c-4 -6 -5 -12 -2 -15 2 -3 7 2 10 11 7 17 1 20 -8 4z"/>
<path d="M1865 2380 c-24 -38 -34 -64 -17 -44 16 17 54 84 48 84 -3 0 -17 -18
-31 -40z"/>
<path d="M1872 2350 c-14 -23 -15 -30 -3 -30 8 0 24 41 18 47 -2 1 -8 -7 -15
-17z"/>
<path d="M672 2305 c-17 -37 -14 -45 4 -12 9 16 14 31 11 33 -2 2 -9 -7 -15
-21z"/>
<path d="M2005 2309 c-4 -6 -5 -12 -2 -15 2 -3 7 2 10 11 7 17 1 20 -8 4z"/>
<path d="M2042 2280 c-16 -22 -32 -37 -36 -33 -4 4 -4 0 -1 -9 3 -8 -1 -23
-11 -32 -9 -9 -14 -19 -11 -22 5 -5 27 23 71 94 33 53 27 55 -12 2z"/>
<path d="M2101 2294 c-6 -15 -9 -29 -7 -32 3 -2 10 8 16 23 14 36 7 43 -9 9z"/>
<path d="M1796 2278 c-16 -22 -13 -39 7 -37 8 0 8 2 -1 6 -10 4 -10 10 3 29
19 30 12 32 -9 2z"/>
<path d="M2016 2284 c-5 -14 -4 -15 9 -4 17 14 19 20 6 20 -5 0 -12 -7 -15
-16z"/>
<path d="M2123 2200 c0 -25 2 -35 4 -22 2 12 2 32 0 45 -2 12 -4 2 -4 -23z"/>
<path d="M1960 2215 c-7 -9 -10 -18 -7 -21 3 -3 10 4 17 15 13 25 8 27 -10 6z"/>
<path d="M1711 2155 l-42 -65 -260 0 c-160 0 -259 -4 -259 -10 0 -6 98 -10
252 -12 l252 -3 38 48 c21 27 38 45 38 41 0 -21 25 20 25 41 1 14 0 25 -1 25
-1 0 -20 -29 -43 -65z m30 12 c-10 -9 -11 -8 -5 6 3 10 9 15 12 12 3 -3 0 -11
-7 -18z"/>
<path d="M1932 2180 c0 -19 2 -27 5 -17 2 9 2 25 0 35 -3 9 -5 1 -5 -18z"/>
<path d="M1950 2145 c-7 -8 -16 -12 -21 -9 -5 3 -6 -2 -3 -10 8 -21 9 -20 28
9 18 27 16 34 -4 10z"/>
<path d="M2328 2133 c7 -3 16 -2 19 1 4 3 -2 6 -13 5 -11 0 -14 -3 -6 -6z"/>
<path d="M1724 2104 c1 -26 11 -32 19 -11 2 6 -1 17 -8 24 -10 9 -13 7 -11
-13z"/>
<path d="M2103 2108 c8 -22 1 -24 -97 -18 -46 3 -82 2 -79 -2 2 -5 0 -8 -6 -8
-13 0 -51 -41 -51 -54 1 -6 11 1 23 17 l23 27 297 0 c201 0 297 3 297 11 0 6
-32 9 -87 8 -48 -1 -88 2 -90 7 -2 5 -44 7 -93 4 -68 -4 -89 -2 -86 7 3 7 -1
10 -10 6 -7 -3 -14 -10 -14 -17 0 -6 -8 -2 -17 9 -12 15 -14 16 -10 3z"/>
<path d="M1860 2059 c0 -5 -4 -7 -10 -4 -5 3 -10 2 -10 -4 0 -19 16 -19 28 0
7 11 8 19 2 19 -5 0 -10 -5 -10 -11z"/>
<path d="M1632 2035 l-30 -25 -226 0 c-141 0 -226 -4 -226 -10 0 -6 84 -11
218 -12 167 -2 216 -6 215 -15 -2 -7 2 -13 8 -13 6 0 9 9 6 20 -4 15 0 20 15
20 10 0 16 4 13 10 -3 5 9 19 27 30 18 11 28 20 21 20 -6 0 -25 -11 -41 -25z"/>
<path d="M1640 2010 c0 -5 5 -10 10 -10 6 0 10 5 10 10 0 6 -4 10 -10 10 -5 0
-10 -4 -10 -10z"/>
<path d="M1855 2001 c-3 -6 119 -10 325 -11 219 0 330 3 330 10 0 13 -646 14
-655 1z"/>
<path d="M1780 1980 c0 -5 5 -10 10 -10 6 0 10 5 10 10 0 6 -4 10 -10 10 -5 0
-10 -4 -10 -10z"/>
<path d="M1820 1986 c0 -2 7 -7 16 -10 8 -3 12 -2 9 4 -6 10 -25 14 -25 6z"/>
<path d="M512 1960 c0 -14 2 -19 5 -12 2 6 2 18 0 25 -3 6 -5 1 -5 -13z"/>
<path d="M1805 1940 c-18 -20 -18 -21 0 -14 13 5 16 4 11 -4 -5 -9 78 -12 343
-12 227 0 351 4 351 10 0 6 -122 10 -345 10 -311 0 -379 5 -332 23 7 3 7 6 1
6 -6 1 -19 -8 -29 -19z"/>
<path d="M1565 1940 c-4 -6 -85 -10 -210 -10 -125 0 -206 -4 -210 -10 -4 -7
63 -10 194 -10 111 0 201 -3 201 -6 0 -3 -9 -17 -20 -31 l-19 -25 -175 2
c-111 0 -177 -3 -181 -10 -4 -7 52 -10 174 -10 99 0 182 4 185 9 3 5 14 7 24
4 11 -2 26 5 37 19 l20 23 -21 -17 c-22 -19 -44 -24 -44 -9 0 5 7 12 16 15 8
3 14 14 12 23 -2 10 6 26 17 35 11 10 17 17 13 18 -4 0 -10 -4 -13 -10z"/>
<path d="M1770 1939 c0 -5 5 -7 10 -4 6 3 10 8 10 11 0 2 -4 4 -10 4 -5 0 -10
-5 -10 -11z"/>
<path d="M496 1922 c-3 -5 1 -9 9 -9 8 0 12 4 9 9 -3 4 -7 8 -9 8 -2 0 -6 -4
-9 -8z"/>
<path d="M1576 1922 c-2 -4 -1 -14 4 -22 7 -11 9 -9 7 8 -1 24 -3 26 -11 14z"/>
<path d="M1768 1913 c6 -2 12 -9 12 -14 0 -6 -4 -8 -8 -5 -4 2 -9 -5 -9 -17
-2 -21 -1 -21 17 3 18 24 12 41 -15 39 -5 0 -4 -3 3 -6z"/>
<path d="M1760 1840 c0 -6 132 -10 375 -10 243 0 375 4 375 10 0 6 -132 10
-375 10 -243 0 -375 -4 -375 -10z"/>
<path d="M1680 1831 c0 -10 19 -25 25 -20 1 2 -3 10 -11 17 -8 7 -14 8 -14 3z"/>
<path d="M1725 1815 c-8 -14 -21 -35 -29 -47 l-13 -23 208 -1 c115 0 226 -2
247 -4 67 -5 372 12 372 21 0 5 -172 9 -401 9 l-401 0 22 35 c12 19 19 35 16
35 -3 0 -12 -11 -21 -25z"/>
<path d="M1500 1820 c-13 -8 -12 -10 3 -10 9 0 17 5 17 10 0 12 -1 12 -20 0z"/>
<path d="M1462 1790 c-11 -19 -23 -20 -169 -20 -99 0 -153 -4 -148 -9 11 -11
296 -20 289 -10 -5 8 25 21 35 15 4 -3 8 6 9 20 2 29 0 30 -16 4z"/>
<path d="M1650 1745 c-8 -9 -8 -15 -2 -15 12 0 26 19 19 26 -2 2 -10 -2 -17
-11z"/>
<path d="M1390 1685 c-17 -25 -47 -61 -66 -80 -19 -19 -29 -35 -22 -35 7 0 19
9 26 20 7 12 18 17 29 14 15 -5 15 -4 3 5 -13 9 -12 12 3 28 36 38 69 84 64
89 -3 3 -19 -15 -37 -41z"/>
<path d="M2128 1713 c7 -3 16 -2 19 1 4 3 -2 6 -13 5 -11 0 -14 -3 -6 -6z"/>
<path d="M435 1679 c-4 -6 -4 -13 -1 -16 3 -4 6 -1 6 6 0 7 5 9 12 5 7 -4 8
-3 4 4 -9 15 -13 15 -21 1z"/>
<path d="M1625 1670 c-4 -11 -11 -18 -16 -15 -5 3 -6 -1 -3 -10 4 -9 7 -15 8
-13 1 2 10 15 19 31 10 15 13 27 8 27 -5 0 -13 -9 -16 -20z"/>
<path d="M2331 1663 c-10 -26 -10 -27 4 -9 8 11 15 23 15 28 0 15 -7 8 -19
-19z"/>
<path d="M1422 1655 c0 -16 2 -22 5 -12 2 9 2 23 0 30 -3 6 -5 -1 -5 -18z"/>
<path d="M1390 1625 c-7 -9 -8 -15 -2 -15 5 0 12 7 16 15 3 8 4 15 2 15 -2 0
-9 -7 -16 -15z"/>
<path d="M2112 1620 c0 -14 2 -19 5 -12 2 6 2 18 0 25 -3 6 -5 1 -5 -13z"/>
<path d="M2340 1632 c0 -14 47 -65 56 -61 5 2 -6 18 -23 36 -18 17 -33 28 -33
25z"/>
<path d="M2062 1596 c-19 -21 -20 -25 -6 -30 9 -4 19 -4 22 -1 3 3 0 5 -7 5
-8 0 -7 5 3 16 14 13 22 34 14 34 -2 0 -13 -11 -26 -24z"/>
<path d="M1600 1586 c0 -2 7 -7 16 -10 8 -3 12 -2 9 4 -6 10 -25 14 -25 6z"/>
<path d="M1195 1559 c-11 -16 -1 -19 13 -3 7 8 8 14 3 14 -5 0 -13 -5 -16 -11z"/>
<path d="M1250 1554 l-25 -15 25 7 c28 7 35 12 29 18 -2 2 -15 -2 -29 -10z"/>
<path d="M1650 1560 c8 -5 20 -10 25 -10 6 0 3 5 -5 10 -8 5 -19 10 -25 10 -5
0 -3 -5 5 -10z"/>
<path d="M2344 1559 c-3 -6 -1 -15 5 -20 6 -5 9 -6 6 -3 -3 4 0 13 6 21 8 9 8
13 1 13 -6 0 -14 -5 -18 -11z"/>
<path d="M1605 1550 c3 -5 14 -10 23 -10 15 0 15 2 2 10 -20 13 -33 13 -25 0z"/>
<path d="M1690 1550 c0 -5 5 -10 10 -10 6 0 10 5 10 10 0 6 -4 10 -10 10 -5 0
-10 -4 -10 -10z"/>
<path d="M1958 1553 c7 -3 16 -2 19 1 4 3 -2 6 -13 5 -11 0 -14 -3 -6 -6z"/>
<path d="M2388 1553 c7 -3 16 -2 19 1 4 3 -2 6 -13 5 -11 0 -14 -3 -6 -6z"/>
<path d="M1986 1541 c-3 -4 6 -8 20 -9 13 -1 24 0 24 2 0 7 -40 14 -44 7z"/>
<path d="M2048 1543 c6 -2 18 -2 25 0 6 3 1 5 -13 5 -14 0 -19 -2 -12 -5z"/>
<path d="M2420 1540 c-8 -5 -10 -10 -5 -10 6 0 17 5 25 10 8 5 11 10 5 10 -5
0 -17 -5 -25 -10z"/>
<path d="M1293 1533 c9 -2 23 -2 30 0 6 3 -1 5 -18 5 -16 0 -22 -2 -12 -5z"/>
<path d="M1658 1533 c7 -3 16 -2 19 1 4 3 -2 6 -13 5 -11 0 -14 -3 -6 -6z"/>
<path d="M1973 1475 c0 -27 2 -38 4 -22 2 15 2 37 0 50 -2 12 -4 0 -4 -28z"/>
<path d="M1193 1425 c0 -10 490 -5 500 5 3 3 -108 5 -247 5 -162 0 -253 -4
-253 -10z"/>
<path d="M1997 1423 c-3 -5 68 -7 156 -5 302 4 333 8 90 10 -133 1 -244 -1
-246 -5z"/>
<path d="M1701 1404 c0 -11 3 -14 6 -6 3 7 2 16 -1 19 -3 4 -6 -2 -5 -13z"/>
<path d="M431 1274 c0 -11 3 -14 6 -6 3 7 2 16 -1 19 -3 4 -6 -2 -5 -13z"/>
<path d="M2545 1280 c-4 -6 10 -10 34 -10 23 0 41 5 41 10 0 6 -15 10 -34 10
-19 0 -38 -4 -41 -10z"/>
<path d="M2808 1241 c-83 -27 -138 -95 -138 -170 0 -75 64 -110 164 -89 88 18
162 124 138 196 -17 53 -98 84 -164 63z m76 -48 c9 -24 -11 -113 -34 -151 -17
-28 -25 -33 -53 -30 -29 3 -32 7 -35 38 -4 39 12 103 34 138 18 27 78 31 88 5z"/>
<path d="M817 1188 c-19 -29 -49 -77 -67 -106 -18 -30 -44 -60 -57 -69 -35
-23 -28 -33 26 -33 50 0 75 15 50 30 -10 7 -10 14 -1 34 10 22 18 26 52 26 38
0 40 -2 40 -30 0 -23 -4 -30 -20 -30 -11 0 -20 -7 -20 -15 0 -12 14 -15 69
-15 70 0 99 14 67 32 -13 7 -16 26 -16 103 0 119 -2 125 -51 125 -36 0 -41 -4
-72 -52z m43 -54 c0 -31 -2 -34 -30 -34 l-31 0 23 39 c26 46 38 44 38 -5z"/>
<path d="M1006 1228 c-3 -7 -9 -28 -15 -45 -13 -41 8 -46 33 -8 10 16 26 25
41 25 30 0 30 2 5 -84 -11 -38 -18 -72 -15 -74 9 -9 -17 -32 -35 -32 -10 0
-20 -7 -24 -15 -4 -13 8 -15 79 -15 69 0 85 3 85 15 0 8 -7 15 -15 15 -17 0
-20 32 -6 76 5 16 14 48 20 72 10 35 16 42 36 42 20 0 25 -5 25 -26 0 -42 32
-26 46 24 l13 42 -135 0 c-99 0 -136 -3 -138 -12z"/>
<path d="M1301 1130 c-38 -64 -74 -113 -88 -119 -39 -18 -26 -31 31 -31 39 0
55 4 60 15 3 9 0 15 -9 15 -18 0 -18 1 -5 34 8 22 16 26 50 26 37 0 40 -2 40
-29 0 -20 -6 -30 -20 -34 -11 -3 -20 -10 -20 -16 0 -7 27 -11 74 -11 56 0 75
4 80 15 3 9 0 15 -8 15 -20 0 -26 33 -26 138 l0 92 -47 -1 -48 0 -64 -109z
m79 10 c0 -38 -2 -40 -29 -40 l-29 0 21 40 c12 22 25 40 30 40 4 0 7 -18 7
-40z"/>
<path d="M1615 1223 c-81 -42 -129 -154 -90 -209 38 -55 140 -56 200 -2 33 28
46 58 26 58 -5 0 -25 -16 -44 -35 -79 -79 -126 -19 -82 104 17 50 39 70 76 71
27 0 39 -15 39 -51 0 -12 7 -19 20 -19 20 0 30 17 43 71 l6 25 -82 2 c-57 1
-91 -4 -112 -15z"/>
<path d="M1853 1129 c-37 -62 -76 -114 -85 -117 -10 -2 -18 -11 -18 -18 0 -18
95 -20 106 -2 4 6 2 14 -4 16 -17 5 -15 37 2 51 8 7 30 11 48 9 26 -2 34 -8
36 -26 3 -17 -2 -25 -17 -29 -11 -3 -22 -11 -25 -19 -4 -11 9 -14 69 -14 72 0
103 13 74 31 -9 5 -17 44 -24 116 l-10 108 -42 3 -41 3 -69 -112z m77 11 c0
-36 -3 -40 -24 -40 -13 0 -27 7 -30 16 -3 8 -2 13 2 10 5 -3 16 8 26 25 9 16
19 29 22 29 2 0 4 -18 4 -40z"/>
<path d="M2135 1230 c-4 -6 0 -17 9 -23 16 -12 11 -42 -30 -179 -3 -10 -14
-18 -25 -18 -11 0 -19 -7 -19 -16 0 -14 13 -16 103 -12 119 5 150 16 190 74
41 58 46 112 14 149 -24 28 -28 30 -130 33 -73 3 -107 1 -112 -8z m166 -41
c12 -23 0 -89 -26 -139 -14 -28 -61 -48 -76 -33 -4 4 4 50 18 101 24 82 29 92
49 92 13 0 28 -9 35 -21z"/>
<path d="M2460 1125 c-39 -63 -77 -115 -85 -115 -7 0 -15 -7 -19 -15 -4 -12 5
-15 49 -15 55 0 81 16 52 32 -13 7 -14 13 -5 34 10 21 17 25 52 22 33 -3 40
-7 41 -26 1 -17 -5 -26 -22 -33 -12 -5 -23 -13 -23 -19 0 -16 152 -9 158 8 2
6 -3 12 -11 12 -16 0 -27 66 -27 168 l0 62 -44 0 -45 0 -71 -115z m77 -22 c-3
-2 -16 -3 -30 -1 l-24 3 26 40 26 40 3 -39 c2 -21 1 -40 -1 -43z"/>
<path d="M491 1084 c0 -11 3 -14 6 -6 3 7 2 16 -1 19 -3 4 -6 -2 -5 -13z"/>
<path d="M570 901 c0 -6 4 -13 10 -16 6 -3 7 1 4 9 -7 18 -14 21 -14 7z"/>
<path d="M660 736 c0 -2 8 -10 18 -17 15 -13 16 -12 3 4 -13 16 -21 21 -21 13z"/>
<path d="M720 656 c0 -2 8 -10 18 -17 15 -13 16 -12 3 4 -13 16 -21 21 -21 13z"/>
<path d="M790 576 c0 -2 8 -10 18 -17 15 -13 16 -12 3 4 -13 16 -21 21 -21 13z"/>
</g>
</svg>
