<?xml version="1.0" standalone="no"?>
<!DOCTYPE svg PUBLIC "-//W3C//DTD SVG 20010904//EN"
 "http://www.w3.org/TR/2001/REC-SVG-20010904/DTD/svg10.dtd">
<svg version="1.0" xmlns="http://www.w3.org/2000/svg"
 width="204.000000pt" height="204.000000pt" viewBox="0 0 204.000000 204.000000"
 preserveAspectRatio="xMidYMid meet">

<g transform="translate(0.000000,204.000000) scale(0.100000,-0.100000)"
fill="#000000" stroke="none">
<path d="M0 1020 l0 -1020 1020 0 1020 0 0 1020 0 1020 -1020 0 -1020 0 0
-1020z m1918 328 c7 -7 12 -22 12 -33 0 -22 -141 -439 -160 -476 -10 -19 -29
-19 -819 -19 -924 0 -846 -8 -819 88 33 118 148 436 160 444 7 4 373 8 813 8
610 0 804 -3 813 -12z m-1518 -590 c0 -9 3 -9 12 0 16 16 38 15 38 -1 0 -17
52 -16 63 1 9 14 57 16 57 2 0 -5 7 -10 15 -10 8 0 15 -6 16 -12 0 -10 2 -10
6 0 6 15 35 16 51 0 9 -9 12 -9 12 0 0 7 9 12 20 12 11 0 20 -4 20 -10 0 -5
-4 -10 -9 -10 -5 0 -11 -8 -14 -19 -4 -15 -14 -18 -61 -18 -43 1 -56 4 -57 16
-1 13 -2 12 -6 -1 -5 -21 -53 -25 -54 -5 0 10 -2 10 -6 0 -6 -16 -39 -17 -49
-2 -4 8 -9 7 -16 -2 -7 -11 -11 -11 -15 -1 -2 6 -13 12 -23 12 -10 0 -20 -6
-23 -12 -2 -7 -8 -10 -12 -6 -13 12 5 78 20 78 8 0 15 -5 15 -12z m675 -19 c8
-35 -4 -53 -31 -47 -25 5 -28 29 -7 55 24 30 30 29 38 -8z m236 18 c-6 -6 -11
-18 -11 -26 1 -13 2 -13 11 2 12 20 40 22 57 5 9 -9 12 -9 12 -1 0 8 32 12
102 11 68 0 103 3 106 11 2 6 12 11 23 11 13 0 19 -7 19 -22 0 -17 3 -19 12
-10 30 30 74 -1 48 -33 -15 -18 -50 -20 -51 -2 0 10 -2 10 -6 0 -2 -7 -16 -13
-29 -13 -17 0 -24 6 -24 20 0 25 -17 26 -25 1 -3 -12 -15 -18 -32 -18 -15 0
-29 -6 -31 -12 -2 -6 -10 -11 -19 -11 -10 0 -13 7 -9 23 3 12 3 16 0 10 -8
-19 -24 -16 -25 5 -1 16 -2 16 -6 0 -6 -24 -152 -24 -154 1 -1 13 -2 13 -6 -1
-2 -10 -11 -18 -20 -18 -11 0 -14 6 -9 23 3 12 6 29 6 39 0 12 9 16 36 16 26
0 33 -3 25 -11z m-424 -18 c8 -7 13 -8 13 -1 0 16 101 12 107 -4 8 -22 -18
-46 -44 -41 -16 3 -27 -2 -34 -14 -13 -25 -29 -24 -29 0 0 11 -4 23 -10 26 -5
3 -10 1 -10 -4 0 -21 -41 -11 -50 12 l-9 22 -7 -22 c-6 -23 -24 -32 -24 -12 0
6 -13 1 -29 -10 -37 -27 -41 -26 -41 3 0 49 7 54 82 55 40 0 77 -4 85 -10z
m274 -1 c0 -10 2 -10 6 0 6 16 50 16 56 -1 11 -28 -11 -42 -68 -43 -50 -1 -55
1 -55 21 0 12 3 25 7 28 11 12 53 8 54 -5z"/>
<path d="M343 1090 l-51 -150 49 0 c45 0 50 3 60 28 5 15 12 34 15 42 4 10 11
0 21 -27 l15 -43 58 0 59 0 -25 67 -25 66 50 51 c28 29 51 55 51 59 0 4 -18 7
-40 7 -32 0 -48 -7 -79 -35 -21 -19 -41 -35 -44 -35 -3 0 3 25 14 57 10 31 19
58 19 60 0 1 -22 3 -48 3 l-48 0 -51 -150z"/>
<path d="M494 1204 c-18 -43 -14 -52 11 -24 14 16 31 20 80 20 48 0 68 5 86
20 l24 19 -93 1 -93 0 -15 -36z"/>
<path d="M641 1159 l-85 -80 11 -42 c25 -92 29 -97 73 -97 28 0 40 4 38 13 -2
6 -12 37 -22 69 l-19 56 84 81 84 80 -40 0 c-36 0 -48 -7 -124 -80z"/>
<path d="M1506 1231 c-3 -5 10 -11 30 -14 35 -6 64 -1 64 12 0 10 -88 12 -94
2z"/>
<path d="M942 1180 c-3 -8 -13 -37 -24 -63 -24 -63 -23 -69 9 -65 22 2 29 11
43 52 9 28 22 52 28 54 16 5 15 1 -8 -58 l-20 -50 29 0 c26 0 31 5 46 50 9 27
21 52 26 55 13 9 11 -6 -6 -55 -19 -54 -20 -50 13 -50 24 0 29 6 49 63 14 40
18 65 12 72 -5 5 -50 10 -101 10 -72 0 -92 -3 -96 -15z"/>
<path d="M1175 1188 c-3 -7 -20 -58 -39 -113 -19 -55 -37 -108 -41 -117 -6
-15 -2 -18 22 -18 27 0 31 5 48 55 18 52 21 55 52 55 23 0 37 7 47 23 18 28
41 105 34 113 -3 3 -31 7 -62 10 -40 3 -58 1 -61 -8z m61 -44 c-3 -9 -9 -27
-12 -40 -7 -26 -24 -33 -24 -10 0 25 19 66 31 66 6 0 8 -7 5 -16z"/>
<path d="M1373 1193 c-24 -2 -43 -6 -43 -7 0 -2 -11 -33 -25 -70 l-25 -66 29
0 c25 0 31 6 47 52 11 28 25 54 33 56 8 3 11 0 7 -7 -5 -7 3 -11 24 -11 28 0
31 3 28 27 -3 30 -9 32 -75 26z"/>
<path d="M785 1180 c-3 -5 -15 -35 -25 -65 -22 -65 -20 -68 61 -63 l54 3 21
60 c12 33 20 63 17 68 -6 11 -121 9 -128 -3z m49 -77 c-11 -26 -18 -33 -21
-21 -2 9 4 33 13 55 11 26 18 33 21 21 2 -9 -4 -33 -13 -55z"/>
<path d="M1472 1178 c-7 -7 -12 -16 -12 -20 0 -12 48 -10 55 2 8 13 25 13 25
1 0 -5 -20 -17 -45 -27 -45 -17 -65 -38 -65 -68 0 -13 13 -16 64 -16 l64 0 21
62 c12 34 21 66 21 70 0 13 -115 9 -128 -4z m48 -77 c0 -12 -20 -25 -27 -18
-7 7 6 27 18 27 5 0 9 -4 9 -9z"/>
<path d="M1625 1178 c-47 -131 -48 -128 25 -128 l61 0 19 46 c11 25 23 57 26
70 6 24 5 24 -60 24 -44 0 -68 -4 -71 -12z m75 -12 c0 -12 -40 -96 -46 -96 -7
0 0 34 16 75 8 20 30 36 30 21z"/>
<path d="M727 985 c-14 -39 -14 -45 -1 -45 8 0 14 5 14 12 0 9 3 9 12 0 21
-21 41 -14 34 12 -3 14 -2 28 4 31 5 3 10 11 10 18 0 8 -3 8 -12 -1 -17 -17
-31 -15 -24 3 3 9 0 15 -8 15 -8 0 -21 -20 -29 -45z"/>
<path d="M1021 1008 c-21 -58 -23 -68 -7 -68 8 0 17 13 21 30 4 16 11 32 16
35 12 8 11 -7 -1 -40 -9 -22 -8 -26 7 -23 19 3 40 56 27 68 -5 4 -19 11 -31
15 -18 5 -25 1 -32 -17z"/>
<path d="M1190 990 c-11 -21 -20 -41 -20 -42 0 -2 11 -4 25 -4 23 -2 25 1 25
42 0 24 -2 44 -5 44 -2 0 -14 -18 -25 -40z"/>
<path d="M1244 985 c-1 -24 2 -42 7 -39 5 3 9 11 9 17 0 7 7 24 14 40 14 25
14 27 -7 27 -19 0 -22 -6 -23 -45z"/>
<path d="M1297 995 c-21 -45 -21 -53 1 -51 20 1 30 20 31 59 1 37 -12 34 -32
-8z m23 -9 c0 -3 -4 -8 -10 -11 -5 -3 -10 -1 -10 4 0 6 5 11 10 11 6 0 10 -2
10 -4z"/>
<path d="M1350 1004 c-16 -40 -12 -64 9 -64 10 0 21 7 25 15 3 8 1 15 -3 15
-5 0 -12 -6 -14 -12 -3 -7 -6 -2 -6 12 0 14 4 32 9 40 6 10 10 11 10 3 0 -7 5
-13 10 -13 6 0 10 7 10 15 0 26 -40 17 -50 -11z"/>
<path d="M1427 1024 c-4 -4 -4 -19 -1 -33 4 -17 2 -22 -3 -13 -7 9 -12 7 -21
-12 -10 -22 -8 -24 14 -22 13 0 24 6 24 12 0 6 3 26 6 43 6 29 -3 40 -19 25z"/>
<path d="M1463 985 c-9 -41 -8 -45 8 -45 22 0 39 29 39 64 0 19 -5 26 -18 26
-14 0 -21 -12 -29 -45z m32 3 c-4 -13 -12 -27 -18 -33 -7 -7 -8 -4 -3 8 3 10
6 25 6 33 0 8 5 14 11 14 6 0 8 -9 4 -22z"/>
<path d="M1523 985 c-6 -25 -7 -45 -3 -45 4 0 11 12 14 28 4 15 9 35 12 45 3
9 1 17 -4 17 -5 0 -13 -20 -19 -45z"/>
<path d="M1565 1020 c-4 -6 -4 -25 -1 -43 3 -17 3 -26 0 -19 -3 6 -10 10 -15
6 -16 -10 -10 -24 11 -24 23 0 35 22 26 45 -7 18 -4 31 7 28 4 -2 7 2 7 7 0
13 -27 13 -35 0z"/>
<path d="M1613 982 c-2 -33 1 -43 7 -32 5 8 10 23 10 32 0 9 7 24 16 32 14 15
13 16 -8 16 -20 0 -23 -5 -25 -48z"/>
<path d="M1677 1023 c-3 -5 -12 -24 -20 -44 -15 -36 -15 -37 9 -35 13 0 24 6
24 12 0 6 3 26 6 43 6 28 -7 44 -19 24z"/>
<path d="M848 1013 c-13 -3 -38 -49 -38 -70 0 -2 17 -3 37 -1 30 2 38 8 46 32
7 21 6 30 -4 37 -8 5 -16 8 -19 8 -3 -1 -13 -3 -22 -6z m16 -37 c-3 -14 -10
-26 -15 -26 -12 0 -11 4 3 35 14 31 21 26 12 -9z"/>
<path d="M930 1000 c-11 -11 -20 -29 -20 -40 0 -16 7 -20 34 -20 21 0 36 6 40
15 3 10 -1 15 -13 15 -11 0 -21 -6 -24 -12 -2 -7 -6 -11 -9 -8 -3 3 1 19 8 35
8 19 13 23 14 13 0 -21 26 -24 33 -4 5 13 -12 26 -34 26 -5 0 -18 -9 -29 -20z"/>
<path d="M920 720 c0 -5 5 -10 10 -10 6 0 10 5 10 10 0 6 -4 10 -10 10 -5 0
-10 -4 -10 -10z"/>
</g>
</svg>
